<svg fill="none" height="14" viewBox="0 0 14 14" width="14" xmlns="http://www.w3.org/2000/svg" xmlns:xlink="http://www.w3.org/1999/xlink"><clipPath id="a"><path d="m0 0h14v14h-14z"/></clipPath><g clip-path="url(#a)" stroke="#000" stroke-linecap="round" stroke-linejoin="round"><path d="m5 5.5c1.38071 0 2.5-1.11929 2.5-2.5s-1.11929-2.5-2.5-2.5-2.5 1.11929-2.5 2.5 1.11929 2.5 2.5 2.5z"/><path d="m4.5 12.5h-4v-.5421c.007961-.7623.208977-1.51.58427-2.17342.3753-.66346.91263-1.22098 1.5618-1.62047.64918-.3995 1.38902-.62792 2.15041-.66397.06788-.00321.13574-.00489.20352-.00504.06778.00015.13565.00183.20353.00504.65023.03078 1.28473.20188 1.86048.5"/><path d="m13.5 8.50003-4.71003 4.70997-2.13.29.3-2.13 4.70003-4.70997z"/></g></svg>